# xmcd
#
# Track frame offsets:
#	150
#	12700
#	17967
#	37502
#	53275
#	70435
#	92202
#	111200
#	129512
#	136977
#	150025
#	169527
#	186330
#	194505
#	210452
#	217075
#	230385
#	236507
#	250967
#	255445
#	274855
#	279795
#	294627
#	301615
#	312202
#	316677
#
# Disc length: 4467 seconds
#
# Revision: 6
# Processed by: cddbd v1.5.2PL0 Copyright (c) Steve Scherf et al.
# Submitted via: audiograbber 1.83.01
#
DISCID=6011711a
DTITLE=Tom Russell - Tom Russell - The Man From God Knows Where
DYEAR=1999
DGENRE=Country
TTITLE0=Tom Russell - The Man From God Knows Where
TTITLE1=Tom Russell and Iris Dement - Wayfarin' Stranger 
TTITLE2=Tom Russell and Iris Dement - Patrick Russell
TTITLE3=Tom Russell and Dolores Keane - Mary Clare Malloy (American Wake) 
TTITLE4=Tom Russell and Dave Van Ronk - The Outcast  
TTITLE5=Tom Russell, Sondre Bratland and Iris Dement - Ambrose Larsen 
TTITLE6=Tom Russell and Dolores Keane - The Dreamin' 
TTITLE7=Tom Russell, Sondre Bratland and Kari Bremnes - The Old Northern Shore 
TTITLE8=Tom Russell and Walt Whitman - The Man From God Knows Where
TTITLE9=Tom Russell and Kari Bremnes - Anna Olsen 
TTITLE10=Tom Russell - Rider On An Orphan Train
TTITLE11=Tom Russell and Iris Dement - Acres Of Corn 
TTITLE12=Tom Russell - The Man From God Knows Where
TTITLE13=Tom Russell - Sitting Bull In Venice
TTITLE14=Tom Russell, Iris DeMent and Kari Bremnes - The Old Rugged Cross
TTITLE15=Tom Russell and Kari Bremnes - Anna Olsen's Letter Home
TTITLE16=Tom Russell and Sondre Bratland - Eg Er Framand 
TTITLE17=Tom Russell, Dolores Keane and Iris DeMent - When Irish Girls Grow Up
TTITLE18=Tom Russell - Casey Jones
TTITLE19=Tom Russell - Chickasaw County Jail
TTITLE20=Tom Russell - Wayfarin' Stranger (Passage Of Time) (Instrumental By Kn
TTITLE20=ut Reiersrud)
TTITLE21=Tom Russell and Iris Dement - Throwin' Horseshoes At The Moon
TTITLE22=Tom Russell - The Man From God Knows Where
TTITLE23=Tom Russell and Dave Van Ronk - The Outcast (Revisited) 
TTITLE24=Tom Russell and Iris Dement - Wayfarin' Stranger (Revisited) 
TTITLE25=Tom Russell and Iris Dement - Love Abides
EXTD=
EXTT0=Tom Russell
EXTT1=Iris DeMent
EXTT2=Tom Russell and Iris DeMent
EXTT3=Dolores Keane
EXTT4=Dave Van Ronk
EXTT5=Sondre Bratland and Iris DeMent
EXTT6=Tom Russell and Dolores Keane
EXTT7=Sondre Bratland, Kari Bremnes, and all
EXTT8=Tom Russell and Walt Whitman
EXTT9=Kari Bremnes
EXTT10=Tom Russell
EXTT11=Iris DeMent
EXTT12=Tom Russell
EXTT13=Tom Russell
EXTT14=Iris DeMent and Kari Bremnes
EXTT15=Kari Bremnes
EXTT16=Sondre Bratland
EXTT17=Dolores Keane and Iris DeMent
EXTT18=Tom Russell
EXTT19=Tom Russell
EXTT20=Instrumental by Knut Reiersrud
EXTT21=Tom Russell and Iris DeMent
EXTT22=Tom Russell
EXTT23=Dave Van Ronk
EXTT24=Iris DeMent
EXTT25=Tom Russell and Iris DeMent
PLAYORDER=
